<?xml version="1.0" encoding="UTF-8" standalone="no"?>
<!-- Created with Inkscape (http://www.inkscape.org/) -->

<svg
   width="350px"
   viewBox="0 0 265.30505 63.985847"
   version="1.1"
   id="svg1"
   xmlns="http://www.w3.org/2000/svg"
   xmlns:svg="http://www.w3.org/2000/svg">
  <defs
     id="defs1">
    <clipPath
       clipPathUnits="userSpaceOnUse"
       id="clipPath34">
      <path
         d="M 0,2000 H 2000 V 0 H 0 Z"
         transform="translate(-604.46172,-1047.2945)"
         id="path34" />
    </clipPath>
    <clipPath
       clipPathUnits="userSpaceOnUse"
       id="clipPath36">
      <path
         d="M 0,2000 H 2000 V 0 H 0 Z"
         transform="translate(-631.70622,-953.3844)"
         id="path36" />
    </clipPath>
    <clipPath
       clipPathUnits="userSpaceOnUse"
       id="clipPath38">
      <path
         d="M 0,2000 H 2000 V 0 H 0 Z"
         transform="translate(-719.79769,-938.84242)"
         id="path38" />
    </clipPath>
    <clipPath
       clipPathUnits="userSpaceOnUse"
       id="clipPath40">
      <path
         d="M 0,2000 H 2000 V 0 H 0 Z"
         transform="translate(-669.43429,-989.2053)"
         id="path40" />
    </clipPath>
    <clipPath
       clipPathUnits="userSpaceOnUse"
       id="clipPath42">
      <path
         d="M 0,2000 H 2000 V 0 H 0 Z"
         transform="translate(-719.79769,-938.84242)"
         id="path42" />
    </clipPath>
    <clipPath
       clipPathUnits="userSpaceOnUse"
       id="clipPath44">
      <path
         d="M 0,2000 H 2000 V 0 H 0 Z"
         transform="translate(-669.43429,-1010.7944)"
         id="path44" />
    </clipPath>
    <clipPath
       clipPathUnits="userSpaceOnUse"
       id="clipPath46">
      <path
         d="M 0,2000 H 2000 V 0 H 0 Z"
         transform="translate(-719.79769,-960.4314)"
         id="path46" />
    </clipPath>
    <clipPath
       clipPathUnits="userSpaceOnUse"
       id="clipPath48">
      <path
         d="M 0,2000 H 2000 V 0 H 0 Z"
         transform="translate(-719.79769,-1061.1575)"
         id="path48" />
    </clipPath>
    <clipPath
       clipPathUnits="userSpaceOnUse"
       id="clipPath50">
      <path
         d="M 0,2000 H 2000 V 0 H 0 Z"
         transform="translate(-770.16162,-1010.7944)"
         id="path50" />
    </clipPath>
    <clipPath
       clipPathUnits="userSpaceOnUse"
       id="clipPath52">
      <path
         d="M 0,2000 H 2000 V 0 H 0 Z"
         transform="translate(-900.27725,-962.33722)"
         id="path52" />
    </clipPath>
    <clipPath
       clipPathUnits="userSpaceOnUse"
       id="clipPath54">
      <path
         d="M 0,2000 H 2000 V 0 H 0 Z"
         transform="translate(-900.49572,-999.1281)"
         id="path54" />
    </clipPath>
    <clipPath
       clipPathUnits="userSpaceOnUse"
       id="clipPath56">
      <path
         d="M 0,2000 H 2000 V 0 H 0 Z"
         transform="translate(-855.25452,-940.5231)"
         id="path56" />
    </clipPath>
    <clipPath
       clipPathUnits="userSpaceOnUse"
       id="clipPath58">
      <path
         d="M 0,2000 H 2000 V 0 H 0 Z"
         transform="translate(-817.2734,-1000.0926)"
         id="path58" />
    </clipPath>
    <clipPath
       clipPathUnits="userSpaceOnUse"
       id="clipPath60">
      <path
         d="M 0,2000 H 2000 V 0 H 0 Z"
         transform="translate(-806.47895,-1010.8871)"
         id="path60" />
    </clipPath>
    <clipPath
       clipPathUnits="userSpaceOnUse"
       id="clipPath62">
      <path
         d="M 0,2000 H 2000 V 0 H 0 Z"
         transform="translate(-855.25452,-962.11215)"
         id="path62" />
    </clipPath>
    <clipPath
       clipPathUnits="userSpaceOnUse"
       id="clipPath64">
      <path
         d="M 0,2000 H 2000 V 0 H 0 Z"
         transform="translate(-899.54915,-960.0903)"
         id="path64" />
    </clipPath>
    <clipPath
       clipPathUnits="userSpaceOnUse"
       id="clipPath66">
      <path
         d="M 0,2000 H 2000 V 0 H 0 Z"
         transform="translate(-855.25452,-1038.0737)"
         id="path66" />
    </clipPath>
    <clipPath
       clipPathUnits="userSpaceOnUse"
       id="clipPath68">
      <path
         d="M 0,2000 H 2000 V 0 H 0 Z"
         transform="translate(-855.25452,-1059.6626)"
         id="path68" />
    </clipPath>
    <clipPath
       clipPathUnits="userSpaceOnUse"
       id="clipPath70">
      <path
         d="M 0,2000 H 2000 V 0 H 0 Z"
         transform="translate(-889.6985,-975.31162)"
         id="path70" />
    </clipPath>
    <clipPath
       clipPathUnits="userSpaceOnUse"
       id="clipPath72">
      <path
         d="M 0,2000 H 2000 V 0 H 0 Z"
         transform="translate(-889.70075,-1009.9226)"
         id="path72" />
    </clipPath>
    <clipPath
       clipPathUnits="userSpaceOnUse"
       id="clipPath74">
      <path
         d="M 0,2000 H 2000 V 0 H 0 Z"
         transform="translate(-889.70075,-1009.9226)"
         id="path74" />
    </clipPath>
    <clipPath
       clipPathUnits="userSpaceOnUse"
       id="clipPath76">
      <path
         d="M 0,2000 H 2000 V 0 H 0 Z"
         transform="translate(-929.56122,-942.59175)"
         id="path76" />
    </clipPath>
    <clipPath
       clipPathUnits="userSpaceOnUse"
       id="clipPath78">
      <path
         d="M 0,2000 H 2000 V 0 H 0 Z"
         transform="translate(-1016.089,-1038.0737)"
         id="path78" />
    </clipPath>
    <clipPath
       clipPathUnits="userSpaceOnUse"
       id="clipPath80">
      <path
         d="M 0,2000 H 2000 V 0 H 0 Z"
         transform="translate(-1016.089,-962.11215)"
         id="path80" />
    </clipPath>
    <clipPath
       clipPathUnits="userSpaceOnUse"
       id="clipPath82">
      <path
         d="M 0,2000 H 2000 V 0 H 0 Z"
         transform="translate(-967.31352,-1010.8871)"
         id="path82" />
    </clipPath>
    <clipPath
       clipPathUnits="userSpaceOnUse"
       id="clipPath84">
      <path
         d="M 0,2000 H 2000 V 0 H 0 Z"
         transform="translate(-1049.4538,-975.31162)"
         id="path84" />
    </clipPath>
    <clipPath
       clipPathUnits="userSpaceOnUse"
       id="clipPath86">
      <path
         d="M 0,2000 H 2000 V 0 H 0 Z"
         transform="translate(-1016.089,-962.11215)"
         id="path86" />
    </clipPath>
    <clipPath
       clipPathUnits="userSpaceOnUse"
       id="clipPath88">
      <path
         d="M 0,2000 H 2000 V 0 H 0 Z"
         transform="translate(-1016.089,-1059.6626)"
         id="path88" />
    </clipPath>
    <clipPath
       clipPathUnits="userSpaceOnUse"
       id="clipPath90">
      <path
         d="M 0,2000 H 2000 V 0 H 0 Z"
         transform="translate(-1016.089,-1059.6626)"
         id="path90" />
    </clipPath>
    <clipPath
       clipPathUnits="userSpaceOnUse"
       id="clipPath92">
      <path
         d="M 0,2000 H 2000 V 0 H 0 Z"
         transform="translate(-1129.294,-1058.093)"
         id="path92" />
    </clipPath>
    <clipPath
       clipPathUnits="userSpaceOnUse"
       id="clipPath94">
      <path
         d="M 0,2000 H 2000 V 0 H 0 Z"
         transform="translate(-1087.1635,-1058.093)"
         id="path94" />
    </clipPath>
    <clipPath
       clipPathUnits="userSpaceOnUse"
       id="clipPath96">
      <path
         d="M 0,2000 H 2000 V 0 H 0 Z"
         transform="translate(-1087.1635,-942.59175)"
         id="path96" />
    </clipPath>
    <clipPath
       clipPathUnits="userSpaceOnUse"
       id="clipPath98">
      <path
         d="M 0,2000 H 2000 V 0 H 0 Z"
         transform="translate(-1097.9581,-964.18072)"
         id="path98" />
    </clipPath>
    <clipPath
       clipPathUnits="userSpaceOnUse"
       id="clipPath100">
      <path
         d="M 0,2000 H 2000 V 0 H 0 Z"
         transform="translate(-1162.2178,-1000.3424)"
         id="path100" />
    </clipPath>
    <clipPath
       clipPathUnits="userSpaceOnUse"
       id="clipPath102">
      <path
         d="M 0,2000 H 2000 V 0 H 0 Z"
         transform="translate(-1129.294,-1058.093)"
         id="path102" />
    </clipPath>
    <clipPath
       clipPathUnits="userSpaceOnUse"
       id="clipPath104">
      <path
         d="M 0,2000 H 2000 V 0 H 0 Z"
         transform="translate(-1129.9706,-942.59565)"
         id="path104" />
    </clipPath>
    <clipPath
       clipPathUnits="userSpaceOnUse"
       id="clipPath106">
      <path
         d="M 0,2000 H 2000 V 0 H 0 Z"
         transform="translate(-1129.6759,-964.18072)"
         id="path106" />
    </clipPath>
    <clipPath
       clipPathUnits="userSpaceOnUse"
       id="clipPath108">
      <path
         d="M 0,2000 H 2000 V 0 H 0 Z"
         transform="translate(-1173.0116,-1011.1368)"
         id="path108" />
    </clipPath>
    <clipPath
       clipPathUnits="userSpaceOnUse"
       id="clipPath110">
      <path
         d="M 0,2000 H 2000 V 0 H 0 Z"
         transform="translate(-1197.1934,-942.59175)"
         id="path110" />
    </clipPath>
    <clipPath
       clipPathUnits="userSpaceOnUse"
       id="clipPath112">
      <path
         d="M 0,2000 H 2000 V 0 H 0 Z"
         transform="translate(-1282.9784,-948.5001)"
         id="path112" />
    </clipPath>
    <clipPath
       clipPathUnits="userSpaceOnUse"
       id="clipPath114">
      <path
         d="M 0,2000 H 2000 V 0 H 0 Z"
         transform="translate(-1244.8936,-1058.0967)"
         id="path114" />
    </clipPath>
    <clipPath
       clipPathUnits="userSpaceOnUse"
       id="clipPath116">
      <path
         d="M 0,2000 H 2000 V 0 H 0 Z"
         transform="translate(-1225.361,-984.9915)"
         id="path116" />
    </clipPath>
    <clipPath
       clipPathUnits="userSpaceOnUse"
       id="clipPath118">
      <path
         d="M 0,2000 H 2000 V 0 H 0 Z"
         transform="translate(-1282.0288,-984.9915)"
         id="path118" />
    </clipPath>
    <clipPath
       clipPathUnits="userSpaceOnUse"
       id="clipPath120">
      <path
         d="M 0,2000 H 2000 V 0 H 0 Z"
         transform="translate(-1315.8235,-1046.7957)"
         id="path120" />
    </clipPath>
    <clipPath
       clipPathUnits="userSpaceOnUse"
       id="clipPath122">
      <path
         d="M 0,2000 H 2000 V 0 H 0 Z"
         transform="translate(-1318.3859,-1040.3805)"
         id="path122" />
    </clipPath>
    <clipPath
       clipPathUnits="userSpaceOnUse"
       id="clipPath124">
      <path
         d="M 0,2000 H 2000 V 0 H 0 Z"
         transform="translate(-1417.0735,-954.46612)"
         id="path124" />
    </clipPath>
    <clipPath
       clipPathUnits="userSpaceOnUse"
       id="clipPath126">
      <path
         d="M 0,2000 H 2000 V 0 H 0 Z"
         transform="translate(-1395.4846,-982.8636)"
         id="path126" />
    </clipPath>
    <clipPath
       clipPathUnits="userSpaceOnUse"
       id="clipPath128">
      <path
         d="M 0,2000 H 2000 V 0 H 0 Z"
         transform="translate(-1326.6179,-1058.1581)"
         id="path128" />
    </clipPath>
    <clipPath
       clipPathUnits="userSpaceOnUse"
       id="clipPath130">
      <path
         d="M 0,2000 H 2000 V 0 H 0 Z"
         transform="translate(-765.22744,-1036.4331)"
         id="path130" />
    </clipPath>
    <clipPath
       clipPathUnits="userSpaceOnUse"
       id="clipPath134">
      <path
         d="M 0,2000 H 2000 V 0 H 0 Z"
         transform="translate(-940.30775,-1049.6556)"
         id="path134" />
    </clipPath>
    <clipPath
       clipPathUnits="userSpaceOnUse"
       id="clipPath142">
      <path
         d="M 0,2000 H 2000 V 0 H 0 Z"
         transform="translate(-1337.3645,-953.3862)"
         id="path142" />
    </clipPath>
    <clipPath
       clipPathUnits="userSpaceOnUse"
       id="clipPath76-6">
      <path
         d="M 0,2000 H 2000 V 0 H 0 Z"
         transform="translate(-929.56122,-942.59175)"
         id="path76-0" />
    </clipPath>
  </defs>
  <g
     id="layer1"
     transform="translate(-18.14397,-72.977564)">
    <path
       id="path33"
       d="M 0,0 V -83.109 L -21.579,-93.904 V 0 c 0,5.971 4.83,10.801 10.789,10.801 C -4.831,10.801 0,5.971 0,0"
       style="fill:#edf2f4;fill-opacity:1;fill-rule:nonzero;stroke:none"
       transform="matrix(0.29673903,0,0,-0.29673903,32.540033,91.494318)"
       clip-path="url(#clipPath34)" />
    <path
       id="path35"
       d="m 0,0 c 0,-5.959 -4.831,-10.79 -10.802,-10.79 h -45.064729 c -2.986,0 -5.677,1.211 -7.628,3.162 -1.951,1.951 -3.162,4.654 -3.162,7.628 0,5.959 4.831,10.801 10.79,10.801 H -10.802 C -4.831,10.801 0,5.959 0,0"
       style="fill:#edf2f4;fill-opacity:1;fill-rule:nonzero;stroke:none"
       transform="matrix(0.29673903,0,0,-0.29673903,45.992528,119.36109)"
       clip-path="url(#clipPath36)" />
    <path
       id="path37"
       d="m 0,0 c -5.962,0 -10.795,4.833 -10.795,10.795 0,5.961 4.833,10.794 10.795,10.794 21.819,0 39.569,17.75 39.569,39.568 0,5.962 4.833,10.795 10.795,10.795 5.962,0 10.794,-4.833 10.794,-10.795 C 61.158,27.435 33.722,0 0,0 Z"
       style="fill:#edf2f4;fill-opacity:1;fill-rule:nonzero;stroke:none"
       transform="matrix(0.29673903,0,0,-0.29673903,66.764721,123.67627)"
       clip-path="url(#clipPath38)" />
    <path
       id="path39"
       d="m 0,0 c -5.962,0 -10.794,4.833 -10.794,10.794 0,33.723 27.435,61.158 61.157,61.158 5.962,0 10.795,-4.832 10.795,-10.794 0,-5.962 -4.833,-10.795 -10.795,-10.795 -21.818,0 -39.569,-17.75 -39.569,-39.569 C 10.794,4.833 5.962,0 0,0"
       style="fill:#edf2f4;fill-opacity:1;fill-rule:nonzero;stroke:none"
       transform="matrix(0.29673903,0,0,-0.29673903,51.819934,108.73163)"
       clip-path="url(#clipPath40)" />
    <path
       id="path41"
       d="m 0,0 c -33.723,0 -61.158,27.435 -61.158,61.157 0,5.962 4.833,10.795 10.795,10.795 5.961,0 10.794,-4.833 10.794,-10.795 0,-21.818 17.751,-39.568 39.568,-39.568 5.962,0 10.795,-4.833 10.795,-10.794 C 10.794,4.833 5.961,0 0,0"
       style="fill:#edf2f4;fill-opacity:1;fill-rule:nonzero;stroke:none"
       transform="matrix(0.29673903,0,0,-0.29673903,66.764721,123.67627)"
       clip-path="url(#clipPath42)" />
    <path
       id="path43"
       d="m 0,0 c -5.962,0 -10.794,-4.833 -10.794,-10.795 0,-5.961 4.832,-10.794 10.794,-10.794 5.962,0 10.794,4.833 10.794,10.794 C 10.794,-4.833 5.962,0 0,0"
       style="fill:#edf2f4;fill-opacity:1;fill-rule:nonzero;stroke:none"
       transform="matrix(0.29673903,0,0,-0.29673903,51.819934,102.32532)"
       clip-path="url(#clipPath44)" />
    <path
       id="path45"
       d="m 0,0 c -5.962,0 -10.795,-4.833 -10.795,-10.794 0,-5.962 4.833,-10.795 10.795,-10.795 5.962,0 10.794,4.833 10.794,10.795 C 10.794,-4.833 5.961,0 0,0"
       style="fill:#edf2f4;fill-opacity:1;fill-rule:nonzero;stroke:none"
       transform="matrix(0.29673903,0,0,-0.29673903,66.764721,117.26997)"
       clip-path="url(#clipPath46)" />
    <path
       id="path47"
       d="m 0,0 v 0 c -5.962,0 -10.795,-4.833 -10.795,-10.794 0,-5.962 4.833,-10.795 10.795,-10.795 5.962,0 10.794,4.833 10.794,10.795 C 10.794,-4.833 5.961,0 0,0 Z"
       style="fill:#edf2f4;fill-opacity:1;fill-rule:nonzero;stroke:none"
       transform="matrix(0.29673903,0,0,-0.29673903,66.764721,87.380603)"
       clip-path="url(#clipPath48)" />
    <path
       id="path49"
       d="m 0,0 c -5.962,0 -10.795,-4.833 -10.795,-10.795 0,-5.961 4.833,-10.794 10.795,-10.794 5.962,0 10.794,4.833 10.794,10.794 C 10.794,-4.833 5.962,0 0,0 Z"
       style="fill:#edf2f4;fill-opacity:1;fill-rule:nonzero;stroke:none"
       transform="matrix(0.29673903,0,0,-0.29673903,81.709664,102.32532)"
       clip-path="url(#clipPath50)" />
    <path
       id="path51"
       d="M 0,0 C -0.158,-0.752 -0.395,-1.504 -0.728,-2.247 -0.377,-1.466 -0.148,-1.034 0,0 Z"
       style="fill:#edf2f4;fill-opacity:1;fill-rule:nonzero;stroke:none"
       transform="matrix(0.29673903,0,0,-0.29673903,120.32016,116.70444)"
       clip-path="url(#clipPath52)" />
    <path
       id="path53"
       d="m 0,0 -21.589,-10.794 v -23.817 c 0,-5.962 4.833,-10.794 10.795,-10.794 5.664,0 9.686,4.074 10.603,8.819 -0.009,-0.071 -0.018,-0.139 -0.028,-0.205 0.153,0.727 0.225,1.452 0.226,2.169 z"
       style="fill:#edf2f4;fill-opacity:1;fill-rule:nonzero;stroke:none"
       transform="matrix(0.29673903,0,0,-0.29673903,120.38499,105.78715)"
       clip-path="url(#clipPath54)" />
    <path
       id="path55"
       d="m 0,0 c 15.207,0 30.607,5.853 41.348,15.679 4.414,3.718 5.549,10.822 0.97,15.701 -2.124,2.264 -4.995,3.409 -7.874,3.409 -5.315,0 -7.132,-3.09 -10.792,-5.722 C 17.07,24.332 8.525,21.589 0,21.589 Z"
       style="fill:#edf2f4;fill-opacity:1;fill-rule:nonzero;stroke:none"
       transform="matrix(0.29673903,0,0,-0.29673903,106.96009,123.17754)"
       clip-path="url(#clipPath56)" />
    <path
       id="path57"
       d="m 0,0 v 0 h -21.589 c 0,-32.847 26.723,-59.569 59.57,-59.569 V -37.98 C 17.038,-37.98 0,-20.942 0,0"
       style="fill:#edf2f4;fill-opacity:1;fill-rule:nonzero;stroke:none"
       transform="matrix(0.29673903,0,0,-0.29673903,95.689567,105.50095)"
       clip-path="url(#clipPath58)" />
    <path
       id="path59"
       d="m 0,0 c -5.962,0 -10.794,-4.833 -10.794,-10.794 0,-5.962 4.832,-10.795 10.794,-10.795 5.962,0 10.794,4.833 10.794,10.795 C 10.794,-4.833 5.962,0 0,0"
       style="fill:#edf2f4;fill-opacity:1;fill-rule:nonzero;stroke:none"
       transform="matrix(0.29673903,0,0,-0.29673903,92.486432,102.29779)"
       clip-path="url(#clipPath60)" />
    <path
       id="path61"
       d="m 0,0 c -5.962,0 -10.795,-4.833 -10.795,-10.794 0,-5.962 4.833,-10.795 10.795,-10.795 5.962,0 10.794,4.833 10.794,10.795 C 10.794,-4.833 5.962,0 0,0"
       style="fill:#edf2f4;fill-opacity:1;fill-rule:nonzero;stroke:none"
       transform="matrix(0.29673903,0,0,-0.29673903,106.96009,116.77123)"
       clip-path="url(#clipPath62)" />
    <path
       id="path63"
       d="M 0,0 C -0.513,-1.138 -1.217,-2.172 -2.071,-3.06 -1.187,-2.143 -0.497,-1.106 0,0"
       style="fill:#edf2f4;fill-opacity:1;fill-rule:nonzero;stroke:none"
       transform="matrix(0.29673903,0,0,-0.29673903,120.1041,117.37119)"
       clip-path="url(#clipPath64)" />
    <path
       id="path65"
       d="m 0,0 c 9.87,0 19.222,-3.768 26.332,-10.61 2.094,-2.015 4.791,-3.016 7.484,-3.016 2.832,0 5.66,1.108 7.779,3.309 4.134,4.296 4.003,11.129 -0.293,15.263 C 30.149,15.678 15.481,21.589 0,21.589 Z"
       style="fill:#edf2f4;fill-opacity:1;fill-rule:nonzero;stroke:none"
       transform="matrix(0.29673903,0,0,-0.29673903,106.96009,94.23049)"
       clip-path="url(#clipPath66)" />
    <path
       id="path67"
       d="m 0,0 v 0 c -5.962,0 -10.795,-4.833 -10.795,-10.795 0,-5.961 4.833,-10.794 10.795,-10.794 5.962,0 10.794,4.833 10.794,10.794 C 10.794,-4.833 5.962,0 0,0"
       style="fill:#edf2f4;fill-opacity:1;fill-rule:nonzero;stroke:none"
       transform="matrix(0.29673903,0,0,-0.29673903,106.96009,87.824198)"
       clip-path="url(#clipPath68)" />
    <path
       id="path69"
       d="m 0,0 c -5.315,0 -7.132,-3.089 -10.792,-5.722 v -5.072 c 0,-5.962 4.833,-10.795 10.795,-10.795 9.436,0 14.325,11.304 7.871,18.181 C 5.749,-1.144 2.878,0 0,0"
       style="fill:#edf2f4;fill-opacity:1;fill-rule:nonzero;stroke:none"
       transform="matrix(0.29673903,0,0,-0.29673903,117.18101,112.85443)"
       clip-path="url(#clipPath70)" />
    <path
       id="path71"
       d="m 0,0 h -38.439 c -5.962,0 -10.795,-4.833 -10.795,-10.794 0,-5.962 4.833,-10.795 10.795,-10.795 h 27.645 z"
       style="fill:#edf2f4;fill-opacity:1;fill-rule:nonzero;stroke:none"
       transform="matrix(0.29673903,0,0,-0.29673903,117.18169,102.58402)"
       clip-path="url(#clipPath72)" />
    <path
       id="path73"
       d="M 0,0 C -5.962,0 -10.794,-4.833 -10.794,-10.794 V -21.589 H 0 c 5.962,0 10.794,4.833 10.794,10.795 C 10.795,-4.833 5.962,0 0,0 Z"
       style="fill:#edf2f4;fill-opacity:1;fill-rule:nonzero;stroke:none"
       transform="matrix(0.29673903,0,0,-0.29673903,117.18169,102.58402)"
       clip-path="url(#clipPath74)" />
    <path
       id="path75"
       d="m 0,0 c -5.962,0 -10.795,4.833 -10.795,10.794 v 63.254 c 0,5.962 4.833,10.795 10.795,10.795 5.962,0 10.794,-4.833 10.794,-10.795 V 10.795 C 10.794,4.833 5.962,0 0,0"
       style="fill:#edf2f4;fill-opacity:1;fill-rule:nonzero;stroke:none"
       transform="matrix(0.29673903,0,0,-0.29673903,129.0099,123.09287)"
       clip-path="url(#clipPath76)" />
    <path
       id="path75-4"
       d="m 0,0 c -5.962,0 -10.795,4.833 -10.795,10.794 v 38.28818 c 0,5.962 4.9300165,-1.190134 10.8920165,-1.190134 5.962,0 10.6969835,7.152134 10.6969835,1.190134 V 10.795 C 10.794,4.833 5.962,0 0,0"
       style="fill:#edf2f4;fill-opacity:1;fill-rule:nonzero;stroke:none"
       transform="matrix(0.29673903,0,0,-0.29673903,175.72206,105.97586)"
       clip-path="url(#clipPath76-6)" />
    <path
       id="path77"
       d="M 0,0 V 0 C -20.943,0 -37.981,-17.038 -37.981,-37.981 H -59.57 c 0,32.847 26.723,59.57 59.57,59.57 z"
       style="fill:#edf2f4;fill-opacity:1;fill-rule:nonzero;stroke:none"
       transform="matrix(0.29673903,0,0,-0.29673903,154.68607,94.23049)"
       clip-path="url(#clipPath78)" />
    <path
       id="path79"
       d="M 0,0 C -20.943,0 -37.982,17.038 -37.982,37.98 H -59.57 c 0,-32.847 26.723,-59.569 59.57,-59.569 z"
       style="fill:#edf2f4;fill-opacity:1;fill-rule:nonzero;stroke:none"
       transform="matrix(0.29673903,0,0,-0.29673903,154.68607,116.77123)"
       clip-path="url(#clipPath80)" />
    <path
       id="path81"
       d="m 0,0 c -5.962,0 -10.795,-4.833 -10.795,-10.794 0,-5.962 4.833,-10.795 10.795,-10.795 5.962,0 10.794,4.833 10.794,10.795 C 10.794,-4.833 5.962,0 0,0"
       style="fill:#edf2f4;fill-opacity:1;fill-rule:nonzero;stroke:none"
       transform="matrix(0.29673903,0,0,-0.29673903,140.21248,102.29779)"
       clip-path="url(#clipPath82)" />
    <path
       id="path83"
       d="M 0,0 C -2.647,0 -5.301,-0.968 -7.384,-2.923 -14.446,-9.55 -23.673,-13.2 -33.365,-13.2 v -21.589 c 15.201,0 29.674,5.726 40.754,16.123 C 14.521,-11.974 9.729,0.001 0,0 Z"
       style="fill:#edf2f4;fill-opacity:1;fill-rule:nonzero;stroke:none"
       transform="matrix(0.29673903,0,0,-0.29673903,164.58669,112.85443)"
       clip-path="url(#clipPath84)" />
    <path
       id="path85"
       d="m 0,0 c -5.962,0 -10.794,-4.833 -10.794,-10.794 0,-5.962 4.832,-10.795 10.794,-10.795 5.962,0 10.794,4.833 10.794,10.795 C 10.794,-4.833 5.962,0 0,0"
       style="fill:#edf2f4;fill-opacity:1;fill-rule:nonzero;stroke:none"
       transform="matrix(0.29673903,0,0,-0.29673903,154.68607,116.77123)"
       clip-path="url(#clipPath86)" />
    <path
       id="path87"
       d="m 0,0 v 0 c 15.482,0 30.149,-5.911 41.302,-16.643 4.295,-4.134 4.427,-10.967 0.293,-15.263 -4.134,-4.296 -10.968,-4.426 -15.263,-0.293 -7.109,6.842 -16.461,10.61 -26.332,10.61 z"
       style="fill:#edf2f4;fill-opacity:1;fill-rule:nonzero;stroke:none"
       transform="matrix(0.29673903,0,0,-0.29673903,154.68607,87.824198)"
       clip-path="url(#clipPath88)" />
    <path
       id="path89"
       d="m 0,0 v 0 c -5.962,0 -10.794,-4.833 -10.794,-10.795 0,-5.961 4.832,-10.794 10.794,-10.794 5.962,0 10.794,4.833 10.794,10.794 C 10.794,-4.833 5.962,0 0,0"
       style="fill:#edf2f4;fill-opacity:1;fill-rule:nonzero;stroke:none"
       transform="matrix(0.29673903,0,0,-0.29673903,154.68607,87.824198)"
       clip-path="url(#clipPath90)" />
    <path
       id="path91"
       d="m 0,0 h -42.13 l 10.794,-21.589 H 0 Z"
       style="fill:#edf2f4;fill-opacity:1;fill-rule:nonzero;stroke:none"
       transform="matrix(0.29673903,0,0,-0.29673903,188.27839,88.289982)"
       clip-path="url(#clipPath92)" />
    <path
       id="path93"
       d="m 0,0 c -5.962,0 -10.794,-4.833 -10.794,-10.795 0,-5.961 4.832,-10.794 10.794,-10.794 h 10.795 v 10.794 C 10.795,-4.833 5.962,0 0,0"
       style="fill:#edf2f4;fill-opacity:1;fill-rule:nonzero;stroke:none"
       transform="matrix(0.29673903,0,0,-0.29673903,175.77665,88.289982)"
       clip-path="url(#clipPath94)" />
    <path
       id="path95"
       d="M 0,0 H 42.512 L 42.13,21.589 H 10.795 Z"
       style="fill:#edf2f4;fill-opacity:1;fill-rule:nonzero;stroke:none"
       transform="matrix(0.29673903,0,0,-0.29673903,175.77665,122.5637)"
       clip-path="url(#clipPath96)" />
    <path
       id="path97"
       d="m 0,0 h -10.795 c -5.961,0 -10.794,-4.833 -10.794,-10.794 0,-5.962 4.833,-10.795 10.794,-10.795 5.962,0 10.795,4.833 10.795,10.795 z"
       style="fill:#edf2f4;fill-opacity:1;fill-rule:nonzero;stroke:none"
       transform="matrix(0.29673903,0,0,-0.29673903,178.9798,116.15741)"
       clip-path="url(#clipPath98)" />
    <path
       id="path99"
       d="m 0,0 c 0,20.953 -13.846,36.162 -32.924,36.162 l 0.711,21.584 C -1.49,57.371 21.589,32.672 21.589,0 Z"
       style="fill:#edf2f4;fill-opacity:1;fill-rule:nonzero;stroke:none"
       transform="matrix(0.29673903,0,0,-0.29673903,198.04816,105.42684)"
       clip-path="url(#clipPath100)" />
    <path
       id="path101"
       d="m 0,0 v 0 c -5.962,0 -10.794,-4.833 -10.794,-10.795 0,-5.961 4.832,-10.794 10.794,-10.794 h 0.401 c 5.962,0 10.795,4.833 10.795,10.794 0,5.859 -4.666,10.627 -10.485,10.791 C 0.474,-0.002 0.237,0 0,0"
       style="fill:#edf2f4;fill-opacity:1;fill-rule:nonzero;stroke:none"
       transform="matrix(0.29673903,0,0,-0.29673903,188.27839,88.289982)"
       clip-path="url(#clipPath102)" />
    <path
       id="path103"
       d="M 0,0 C 30.741,0.357 53.836,25.063 53.836,57.747 H 32.247 c 0,-20.953 -13.846,-36.162 -32.924,-36.162 z"
       style="fill:#edf2f4;fill-opacity:1;fill-rule:nonzero;stroke:none"
       transform="matrix(0.29673903,0,0,-0.29673903,188.47918,122.56254)"
       clip-path="url(#clipPath104)" />
    <path
       id="path105"
       d="m 0,0 h -0.382 c -5.962,0 -10.795,-4.833 -10.795,-10.794 0,-5.962 4.833,-10.795 10.795,-10.795 0.225,0 0.452,0.002 0.676,0.004 5.826,0.156 10.5,4.927 10.5,10.79 C 10.794,-4.833 5.962,0 0,0"
       style="fill:#edf2f4;fill-opacity:1;fill-rule:nonzero;stroke:none"
       transform="matrix(0.29673903,0,0,-0.29673903,188.39174,116.15741)"
       clip-path="url(#clipPath106)" />
    <path
       id="path107"
       d="m 0,0 c -5.962,0 -10.794,-4.833 -10.794,-10.794 0,-5.962 4.832,-10.795 10.794,-10.795 5.962,0 10.794,4.833 10.794,10.795 C 10.795,-4.833 5.962,0 0,0"
       style="fill:#edf2f4;fill-opacity:1;fill-rule:nonzero;stroke:none"
       transform="matrix(0.29673903,0,0,-0.29673903,201.25112,102.2237)"
       clip-path="url(#clipPath108)" />
    <path
       id="path109"
       d="m 0,0 c -7.988,0 -13.277,8.477 -9.615,15.684 l 47.699,93.913 c 2.7,5.315 9.197,7.436 14.513,4.736 5.315,-2.7 7.436,-9.197 4.736,-14.513 L 9.633,5.908 C 7.729,2.159 3.935,0 0,0"
       style="fill:#edf2f4;fill-opacity:1;fill-rule:nonzero;stroke:none"
       transform="matrix(0.29673903,0,0,-0.29673903,208.42681,122.5637)"
       clip-path="url(#clipPath110)" />
    <path
       id="path111"
       d="m 0,0 c 2.701,-5.317 9.2,-7.434 14.512,-4.736 5.316,2.7 7.436,9.197 4.736,14.513 l -47.643,93.799 c 1.45,-2.945 1.544,-6.512 -0.057,-9.664 l -9.625,-18.948 z"
       style="fill:#edf2f4;fill-opacity:1;fill-rule:nonzero;stroke:none"
       transform="matrix(0.29673903,0,0,-0.29673903,233.88257,120.81045)"
       clip-path="url(#clipPath112)" />
    <path
       id="path113"
       d="m 0,0 c -8.022,0 -13.271,-8.489 -9.616,-15.685 l 9.625,-18.948 9.624,18.948 C 13.324,-8.419 7.926,0 0,0"
       style="fill:#edf2f4;fill-opacity:1;fill-rule:nonzero;stroke:none"
       transform="matrix(0.29673903,0,0,-0.29673903,222.58133,88.288869)"
       clip-path="url(#clipPath114)" />
    <path
       id="path115"
       d="m 0,0 h -17.572 c -5.962,0 -10.795,-4.833 -10.795,-10.794 0,-5.962 4.833,-10.795 10.795,-10.795 h 6.606 z"
       style="fill:#edf2f4;fill-opacity:1;fill-rule:nonzero;stroke:none"
       transform="matrix(0.29673903,0,0,-0.29673903,216.78523,109.98204)"
       clip-path="url(#clipPath116)" />
    <path
       id="path117"
       d="M 0,0 H -17.586 L -6.62,-21.589 H 0 c 5.962,0 10.794,4.833 10.794,10.795 C 10.794,-4.833 5.962,0 0,0"
       style="fill:#edf2f4;fill-opacity:1;fill-rule:nonzero;stroke:none"
       transform="matrix(0.29673903,0,0,-0.29673903,233.60079,109.98204)"
       clip-path="url(#clipPath118)" />
    <path
       id="path119"
       d="m 0,0 v -41.023 c 0,-5.962 4.833,-10.795 10.794,-10.795 5.962,0 10.795,4.833 10.795,10.795 v 12.178 29.413 z"
       style="fill:#edf2f4;fill-opacity:1;fill-rule:nonzero;stroke:none"
       transform="matrix(0.29673903,0,0,-0.29673903,243.629,91.642317)"
       clip-path="url(#clipPath120)" />
    <path
       id="path121"
       d="m 0,0 19.026,-22.43 60.588,-71.426 c -0.039,0.046 -0.072,0.097 -0.111,0.144 2.12,-2.578 4.744,-3.426 3.864,-3.02 10.517,-4.847 20.154,8.065 12.758,16.785 l -19.027,22.43 -60.535,71.366 z"
       style="fill:#edf2f4;fill-opacity:1;fill-rule:nonzero;stroke:none"
       transform="matrix(0.29673903,0,0,-0.29673903,244.38935,93.545957)"
       clip-path="url(#clipPath122)" />
    <path
       id="path123"
       d="m 0,0 v 92.897 c 0,5.962 -4.833,10.795 -10.794,10.795 -5.962,0 -10.795,-4.833 -10.795,-10.795 V 28.398 -1.015 c 0,-7.858 7.688,-10.456 6.269,-9.802 C -7.057,-14.626 0.658,-7.471 0,0"
       style="fill:#edf2f4;fill-opacity:1;fill-rule:nonzero;stroke:none"
       transform="matrix(0.29673903,0,0,-0.29673903,273.67382,119.0401)"
       clip-path="url(#clipPath124)" />
    <path
       id="path125"
       d="m 0,0 v -29.412 c 0,-7.859 7.687,-10.457 6.268,-9.803 10.517,-4.847 20.155,8.065 12.758,16.786 z"
       style="fill:#edf2f4;fill-opacity:1;fill-rule:nonzero;stroke:none"
       transform="matrix(0.29673903,0,0,-0.29673903,267.26755,110.61346)"
       clip-path="url(#clipPath126)" />
    <path
       id="path127"
       d="m 0,0 c -9.135,0 -14.191,-10.752 -8.232,-17.777 l 19.026,-22.431 v 29.414 C 10.794,-4.834 5.963,0 0,0 Z"
       style="fill:#edf2f4;fill-opacity:1;fill-rule:nonzero;stroke:none"
       transform="matrix(0.29673903,0,0,-0.29673903,246.8321,88.270664)"
       clip-path="url(#clipPath128)" />
    <path
       id="path129"
       d="m 0,0 c 0,-5.935 -4.811,-10.747 -10.747,-10.747 -5.935,0 -10.746,4.812 -10.746,10.747 0,5.935 4.811,10.747 10.746,10.747 C -4.811,10.747 0,5.935 0,0"
       style="fill:#edf2f4;fill-opacity:1;fill-rule:nonzero;stroke:none"
       transform="matrix(0.29673903,0,0,-0.29673903,80.245501,94.717305)"
       clip-path="url(#clipPath130)" />
    <path
       id="path133"
       d="m 0,0 c 0,-5.935 -4.811,-10.747 -10.747,-10.747 -5.935,0 -10.746,4.812 -10.746,10.747 0,5.935 4.811,10.747 10.746,10.747 C -4.811,10.747 0,5.935 0,0"
       style="fill:#edf2f4;fill-opacity:1;fill-rule:nonzero;stroke:none"
       transform="matrix(0.29673903,0,0,-0.29673903,132.19881,90.793673)"
       clip-path="url(#clipPath134)" />
    <path
       id="path141"
       d="m 0,0 c 0,-5.935 -4.811,-10.747 -10.747,-10.747 -5.935,0 -10.746,4.812 -10.746,10.747 0,5.935 4.811,10.747 10.746,10.747 C -4.811,10.747 0,5.935 0,0"
       style="fill:#edf2f4;fill-opacity:1;fill-rule:nonzero;stroke:none"
       transform="matrix(0.29673903,0,0,-0.29673903,250.02104,119.36056)"
       clip-path="url(#clipPath142)" />
    <rect
       style="fill:none;stroke:none;stroke-width:0.264583"
       id="rect2"
       width="265.30505"
       height="63.985847"
       x="18.14397"
       y="72.977562" />
  </g>
</svg>
