<?xml version="1.0" standalone="no"?>
<!DOCTYPE svg PUBLIC "-//W3C//DTD SVG 20010904//EN"
 "http://www.w3.org/TR/2001/REC-SVG-20010904/DTD/svg10.dtd">
<svg version="1.0" xmlns="http://www.w3.org/2000/svg"
 width="400px" viewBox="0 0 960.000000 205.000000"
 preserveAspectRatio="xMidYMid meet">

<g transform="translate(0.000000,205.000000) scale(0.100000,-0.100000)"
fill="#fff" stroke="none">
<path d="M1855 1559 c-137 -21 -245 -76 -347 -179 -96 -96 -150 -199 -173
-333 -41 -241 76 -489 294 -622 100 -60 171 -79 306 -79 101 -1 132 3 194 23
243 80 421 318 421 564 0 62 -3 71 -29 98 -24 23 -38 29 -73 29 -74 0 -118
-50 -118 -133 0 -64 -25 -136 -67 -197 -176 -251 -544 -218 -681 60 -24 49
-27 66 -27 160 0 93 3 112 27 162 60 129 179 213 317 227 106 11 151 45 151
116 0 89 -65 124 -195 104z"/>
<path d="M3983 1540 c-39 -23 -53 -48 -53 -94 0 -80 97 -131 167 -87 70 44 63
155 -11 186 -47 20 -65 19 -103 -5z"/>
<path d="M3242 1537 c-61 -35 -73 -113 -24 -168 24 -27 36 -32 102 -39 88 -10
147 -33 214 -85 59 -45 90 -55 134 -43 47 12 74 60 69 118 -4 39 -12 51 -54
87 -119 105 -359 175 -441 130z"/>
<path d="M4770 1534 c-103 -22 -205 -78 -285 -159 -188 -187 -231 -452 -112
-694 43 -90 168 -215 257 -258 218 -106 461 -82 647 66 77 60 89 125 35 183
-47 51 -94 47 -176 -16 -76 -58 -146 -79 -251 -74 -112 6 -168 30 -245 108
-68 67 -99 131 -109 221 -18 168 65 315 219 388 47 22 68 26 150 26 87 0 101
-3 160 -32 36 -18 84 -46 106 -64 66 -49 143 -37 172 27 28 60 8 111 -65 166
-146 111 -324 151 -503 112z"/>
<path d="M5584 1528 c-62 -16 -95 -83 -70 -141 26 -63 33 -65 326 -69 l265 -4
63 -29 c73 -33 123 -84 161 -164 23 -50 26 -68 26 -166 0 -93 -3 -118 -23
-159 -36 -80 -85 -132 -158 -167 l-66 -33 -266 -3 c-298 -5 -304 -6 -330 -75
-12 -30 -11 -40 1 -71 28 -66 33 -67 333 -68 298 0 338 5 448 64 280 148 372
547 195 843 -65 109 -198 203 -327 234 -57 13 -533 20 -578 8z"/>
<path d="M7165 1533 c-10 -3 -28 -11 -40 -19 -11 -7 -131 -234 -273 -516 -250
-495 -253 -504 -242 -540 15 -50 52 -78 105 -78 30 0 49 7 67 23 13 12 109
190 213 395 104 204 192 372 196 372 4 0 92 -167 195 -371 126 -247 198 -379
217 -395 34 -28 91 -32 125 -8 26 18 52 65 52 93 0 12 -66 150 -146 308 -81
159 -193 380 -251 493 -57 113 -113 213 -126 222 -25 20 -63 28 -92 21z"/>
<path d="M614 1512 c-44 -35 -44 -40 -44 -562 l0 -502 34 -34 34 -34 171 0
c184 0 208 5 234 50 22 37 21 78 -3 117 -23 38 -36 42 -155 46 l-90 2 -5 438
-5 439 -33 29 c-38 34 -103 40 -138 11z"/>
<path d="M7947 1519 c-42 -25 -47 -56 -47 -306 0 -261 1 -268 60 -298 37 -19
63 -19 100 0 41 21 53 49 59 133 l6 72 309 -365 c267 -316 314 -367 347 -376
32 -10 42 -9 71 7 64 37 64 34 58 592 l-5 504 -28 24 c-50 43 -137 28 -169
-29 -10 -16 -14 -113 -18 -350 l-5 -329 -295 350 c-162 192 -307 357 -322 366
-29 18 -94 21 -121 5z"/>
<path d="M2209 1391 c-43 -43 -41 -101 5 -147 71 -71 176 -29 176 71 0 38 -5
52 -29 76 -24 24 -38 29 -76 29 -38 0 -52 -5 -76 -29z"/>
<path d="M2881 1376 c-30 -17 -50 -52 -51 -89 -1 -96 110 -143 182 -78 28 25
33 36 33 76 0 40 -5 51 -33 76 -36 32 -89 38 -131 15z"/>
<path d="M3983 1210 c-17 -10 -37 -28 -42 -39 -7 -13 -11 -140 -11 -366 0
-375 2 -389 55 -413 37 -17 86 -15 114 4 48 34 51 60 51 409 0 367 -3 385 -64
410 -47 20 -65 19 -103 -5z"/>
<path d="M2749 1045 c-72 -39 -66 -188 13 -353 73 -153 220 -274 388 -317 81
-21 215 -21 295 0 122 32 273 122 295 176 7 17 10 100 8 233 l-3 208 -33 29
-32 29 -235 0 c-228 0 -235 -1 -260 -22 -52 -46 -48 -130 8 -172 25 -19 45
-21 183 -24 l155 -3 -3 -92 -3 -92 -60 -30 c-56 -28 -68 -30 -170 -30 -106 0
-112 1 -173 34 -115 63 -188 170 -202 300 -8 75 -20 103 -52 125 -28 20 -84
20 -119 1z"/>
<path d="M5174 1041 c-20 -12 -37 -34 -44 -55 -25 -78 58 -161 135 -136 117
39 91 210 -32 210 -15 0 -42 -9 -59 -19z"/>
<path d="M5553 1040 c-70 -42 -59 -145 19 -183 92 -45 180 51 136 148 -24 53
-98 70 -155 35z"/>
<path d="M7121 774 c-55 -46 -50 -122 10 -166 89 -66 204 34 157 137 -26 57
-115 73 -167 29z"/>
<path d="M1159 561 c-23 -24 -29 -38 -29 -74 0 -97 108 -144 179 -78 26 24 31
36 31 76 0 38 -5 52 -29 76 -24 24 -38 29 -76 29 -38 0 -52 -5 -76 -29z"/>
<path d="M7944 572 c-55 -44 -59 -109 -10 -158 27 -27 42 -34 74 -34 48 0 86
28 102 74 15 45 4 81 -32 111 -36 30 -102 34 -134 7z"/>
</g>
</svg>
